<svg viewBox="-2000 -2000 4000 4000" xmlns="http://www.w3.org/2000/svg">
<g transform="rotate(-90, 0, 0) translate(0,0)">
<path d="M-300,400 L-300,-400 L200,-400 L200,400 z" fill="#FFFDB0" stroke="#AE5E46" stroke-width="5"/>
<text alignment-baseline="hanging" font-family="monospace" font-size="85" text-anchor="end" x="200" y="400">
J?
</text>
<text alignment-baseline="bottom" font-family="monospace" font-size="85" text-anchor="end" x="200" y="-400">
10056845-108LF
</text>
<text alignment-baseline="middle" font-family="monospace" font-size="85" text-anchor="end" x="115" y="300">
1
</text>
<path d="M200,300 L400,300" fill="none" stroke="black" stroke-width="10"/>
<text alignment-baseline="middle" font-family="monospace" font-size="85" text-anchor="begin" x="-215" y="300">
2
</text>
<path d="M-300,300 L-500,300" fill="none" stroke="black" stroke-width="10"/>
<text alignment-baseline="middle" font-family="monospace" font-size="85" text-anchor="end" x="115" y="100">
3
</text>
<path d="M200,100 L400,100" fill="none" stroke="black" stroke-width="10"/>
<text alignment-baseline="middle" font-family="monospace" font-size="85" text-anchor="begin" x="-215" y="100">
4
</text>
<path d="M-300,100 L-500,100" fill="none" stroke="black" stroke-width="10"/>
<text alignment-baseline="middle" font-family="monospace" font-size="85" text-anchor="end" x="115" y="-100">
5
</text>
<path d="M200,-100 L400,-100" fill="none" stroke="black" stroke-width="10"/>
<text alignment-baseline="middle" font-family="monospace" font-size="85" text-anchor="begin" x="-215" y="-100">
6
</text>
<path d="M-300,-100 L-500,-100" fill="none" stroke="black" stroke-width="10"/>
<text alignment-baseline="middle" font-family="monospace" font-size="85" text-anchor="end" x="115" y="-300">
7
</text>
<path d="M200,-300 L400,-300" fill="none" stroke="black" stroke-width="10"/>
<text alignment-baseline="middle" font-family="monospace" font-size="85" text-anchor="begin" x="-215" y="-300">
8
</text>
<path d="M-300,-300 L-500,-300" fill="none" stroke="black" stroke-width="10"/>
</g>
<path d="M-600,570 L-600,-400 L600,-400 L600,570 z" fill="none" stroke="green" stroke-width="2"/>
</svg>