<svg viewBox="-2000 -2000 4000 4000" xmlns="http://www.w3.org/2000/svg">
<g transform=" translate(0,0)">
<path d="M-100,0 L-50,0" fill="none" stroke="#0433FF" stroke-width="10"/>
<path d="M-50,70 L-50,-70" fill="none" stroke="#0433FF" stroke-width="10"/>
<path d="M-50,-70 L70,0" fill="none" stroke="#0433FF" stroke-width="10"/>
<path d="M70,0 L-50,70" fill="none" stroke="#0433FF" stroke-width="10"/>
<path d="M60,0 L200,0" fill="none" stroke="#0433FF" stroke-width="10"/>
<path d="M70,70 L70,-70" fill="none" stroke="#0433FF" stroke-width="10"/>
<path d="M30,90 L90,150" fill="none" stroke="#0433FF" stroke-width="10"/>
<path d="M50,150 L90,150" fill="none" stroke="#0433FF" stroke-width="10"/>
<path d="M90,150 L90,110" fill="none" stroke="#0433FF" stroke-width="10"/>
<path d="M-20,140 L40,200" fill="none" stroke="#0433FF" stroke-width="10"/>
<path d="M0,200 L40,200" fill="none" stroke="#0433FF" stroke-width="10"/>
<path d="M40,200 L40,160" fill="none" stroke="#0433FF" stroke-width="10"/>
<text alignment-baseline="hanging" font-family="monospace" font-size="85" text-anchor="begin" x="-200" y="220">
D?
</text>
<text alignment-baseline="bottom" font-family="monospace" font-size="85" text-anchor="begin" x="-200" y="-90">
150060GS75000
</text>
<text alignment-baseline="middle" font-family="monospace" font-size="85" text-anchor="end" x="115" y="0">

</text>
<path d="M200,0 L400,0" fill="none" stroke="black" stroke-width="10"/>
<text alignment-baseline="middle" font-family="monospace" font-size="85" text-anchor="begin" x="-15" y="0">

</text>
<path d="M-100,0 L-300,0" fill="none" stroke="black" stroke-width="10"/>
</g>
<path d="M-300,400 L-300,-270 L515,-270 L515,400 z" fill="none" stroke="green" stroke-width="2"/>
</svg>