<svg viewBox="-2000 -2000 4000 4000" xmlns="http://www.w3.org/2000/svg">
<g transform="rotate(-90, 0, 0) translate(0,0)">
<path d="M100,0 L50,0" fill="none" stroke="#0433FF" stroke-width="10"/>
<path d="M50,-70 L50,70" fill="none" stroke="#0433FF" stroke-width="10"/>
<path d="M50,70 L-70,0" fill="none" stroke="#0433FF" stroke-width="10"/>
<path d="M-70,0 L50,-70" fill="none" stroke="#0433FF" stroke-width="10"/>
<path d="M-60,0 L-200,0" fill="none" stroke="#0433FF" stroke-width="10"/>
<path d="M-70,-70 L-70,70" fill="none" stroke="#0433FF" stroke-width="10"/>
<path d="M-30,-90 L-90,-150" fill="none" stroke="#0433FF" stroke-width="10"/>
<path d="M-50,-150 L-90,-150" fill="none" stroke="#0433FF" stroke-width="10"/>
<path d="M-90,-150 L-90,-110" fill="none" stroke="#0433FF" stroke-width="10"/>
<path d="M20,-140 L-40,-200" fill="none" stroke="#0433FF" stroke-width="10"/>
<path d="M0,-200 L-40,-200" fill="none" stroke="#0433FF" stroke-width="10"/>
<path d="M-40,-200 L-40,-160" fill="none" stroke="#0433FF" stroke-width="10"/>
<text alignment-baseline="bottom" font-family="monospace" font-size="85" text-anchor="end" x="200" y="-220">
D?
</text>
<text alignment-baseline="hanging" font-family="monospace" font-size="85" text-anchor="end" x="200" y="90">
150060GS75000
</text>
<text alignment-baseline="middle" font-family="monospace" font-size="85" text-anchor="begin" x="-115" y="0">

</text>
<path d="M-200,0 L-400,0" fill="none" stroke="black" stroke-width="10"/>
<text alignment-baseline="middle" font-family="monospace" font-size="85" text-anchor="end" x="15" y="0">

</text>
<path d="M100,0 L300,0" fill="none" stroke="black" stroke-width="10"/>
</g>
<path d="M-400,515 L-400,-300 L270,-300 L270,515 z" fill="none" stroke="green" stroke-width="2"/>
</svg>