<svg viewBox="-2000 -2000 4000 4000" xmlns="http://www.w3.org/2000/svg">
<g transform=" translate(0,0)">
<path d="M-900,1200 L-900,-1400 L800,-1400 L800,1200 z" fill="#FFFDB0" stroke="#AE5E46" stroke-width="5"/>
<text alignment-baseline="hanging" font-family="monospace" font-size="85" text-anchor="end" x="800" y="1200">
U?
</text>
<text alignment-baseline="bottom" font-family="monospace" font-size="85" text-anchor="end" x="800" y="-1400">
ADS8689IPW
</text>
<text alignment-baseline="bottom" font-family="monospace" font-size="85" text-anchor="start" transform="rotate(-90, -300, -1400) translate(-250 -1415)" x="0" y="0">
1
</text>
<text alignment-baseline="middle" font-family="monospace" font-size="85" text-anchor="end" transform="rotate(-90, -300, -1315) translate(-300 -1315)">
DGND
</text>
<path d="M-300,-1400 L-300,-1600" fill="none" stroke="black" stroke-width="10"/>
<text alignment-baseline="bottom" font-family="monospace" font-size="85" text-anchor="end" transform="rotate(-90, 200, 1200) translate(115 1185)" x="0" y="0">
2
</text>
<text alignment-baseline="middle" font-family="monospace" font-size="85" text-anchor="begin" transform="rotate(-90, 200, 1115) translate(200 1115)">
AVDD
</text>
<path d="M200,1200 L200,1400" fill="none" stroke="black" stroke-width="10"/>
<text alignment-baseline="bottom" font-family="monospace" font-size="85" text-anchor="start" transform="rotate(-90, 200, -1400) translate(250 -1415)" x="0" y="0">
3
</text>
<text alignment-baseline="middle" font-family="monospace" font-size="85" text-anchor="end" transform="rotate(-90, 200, -1315) translate(200 -1315)">
AGND
</text>
<path d="M200,-1400 L200,-1600" fill="none" stroke="black" stroke-width="10"/>
<text font-family="monospace" font-size="85" text-anchor="begin" x="885" y="-15">
4
</text>
<text alignment-baseline="middle" font-family="monospace" font-size="85" text-anchor="end" x="715" y="0">
REFIO
</text>
<path d="M800,0 L1000,0" fill="none" stroke="black" stroke-width="10"/>
<text font-family="monospace" font-size="85" text-anchor="begin" x="885" y="-815">
5
</text>
<text alignment-baseline="middle" font-family="monospace" font-size="85" text-anchor="end" x="715" y="-800">
REFGND
</text>
<path d="M800,-800 L1000,-800" fill="none" stroke="black" stroke-width="10"/>
<text font-family="monospace" font-size="85" text-anchor="begin" x="885" y="-315">
6
</text>
<text alignment-baseline="middle" font-family="monospace" font-size="85" text-anchor="end" x="715" y="-300">
REFCAP
</text>
<path d="M800,-300 L1000,-300" fill="none" stroke="black" stroke-width="10"/>
<text font-family="monospace" font-size="85" text-anchor="begin" x="885" y="785">
7
</text>
<text alignment-baseline="middle" font-family="monospace" font-size="85" text-anchor="end" x="715" y="800">
AIN_P
</text>
<path d="M800,800 L1000,800" fill="none" stroke="black" stroke-width="10"/>
<text font-family="monospace" font-size="85" text-anchor="begin" x="885" y="385">
8
</text>
<text alignment-baseline="middle" font-family="monospace" font-size="85" text-anchor="end" x="715" y="400">
AIN_GND
</text>
<path d="M800,400 L1000,400" fill="none" stroke="black" stroke-width="10"/>
<text font-family="monospace" font-size="85" text-anchor="end" x="-985" y="-915">
9
</text>
<text alignment-baseline="middle" font-family="monospace" font-size="85" text-anchor="begin" x="-815" y="-900">
~RST
</text>
<path d="M-900,-900 L-1100,-900" fill="none" stroke="black" stroke-width="10"/>
<text font-family="monospace" font-size="85" text-anchor="end" x="-985" y="-715">
10
</text>
<text alignment-baseline="middle" font-family="monospace" font-size="85" text-anchor="begin" x="-815" y="-700">
SDI
</text>
<path d="M-900,-700 L-1100,-700" fill="none" stroke="black" stroke-width="10"/>
<text font-family="monospace" font-size="85" text-anchor="end" x="-985" y="-515">
11
</text>
<text alignment-baseline="middle" font-family="monospace" font-size="85" text-anchor="begin" x="-815" y="-500">
CONVST/~CS
</text>
<path d="M-900,-500 L-1100,-500" fill="none" stroke="black" stroke-width="10"/>
<text font-family="monospace" font-size="85" text-anchor="end" x="-985" y="-315">
12
</text>
<text alignment-baseline="middle" font-family="monospace" font-size="85" text-anchor="begin" x="-815" y="-300">
SCLK
</text>
<path d="M-900,-300 L-1100,-300" fill="none" stroke="black" stroke-width="10"/>
<text font-family="monospace" font-size="85" text-anchor="end" x="-985" y="-115">
13
</text>
<text alignment-baseline="middle" font-family="monospace" font-size="85" text-anchor="begin" x="-815" y="-100">
SDO-0
</text>
<path d="M-900,-100 L-1100,-100" fill="none" stroke="black" stroke-width="10"/>
<text font-family="monospace" font-size="85" text-anchor="end" x="-985" y="385">
14
</text>
<text alignment-baseline="middle" font-family="monospace" font-size="85" text-anchor="begin" x="-815" y="400">
ALARM/SDO-1/GPO
</text>
<path d="M-900,400 L-1100,400" fill="none" stroke="black" stroke-width="10"/>
<text font-family="monospace" font-size="85" text-anchor="end" x="-985" y="685">
15
</text>
<text alignment-baseline="middle" font-family="monospace" font-size="85" text-anchor="begin" x="-815" y="700">
RVS
</text>
<path d="M-900,700 L-1100,700" fill="none" stroke="black" stroke-width="10"/>
<text alignment-baseline="bottom" font-family="monospace" font-size="85" text-anchor="end" transform="rotate(-90, -300, 1200) translate(-385 1185)" x="0" y="0">
16
</text>
<text alignment-baseline="middle" font-family="monospace" font-size="85" text-anchor="begin" transform="rotate(-90, -300, 1115) translate(-300 1115)">
DVDD
</text>
<path d="M-300,1200 L-300,1400" fill="none" stroke="black" stroke-width="10"/>
</g>
<path d="M-1100,1400 L-1100,-1600 L1000,-1600 L1000,1400 z" fill="none" stroke="green" stroke-width="2"/>
</svg>