<svg viewBox="-2000 -2000 4000 4000" xmlns="http://www.w3.org/2000/svg">
<g transform=" translate(0,0)">
<path d="M-400,1200 L-400,-700 L500,-700 L500,1200 z" fill="#FFFDB0" stroke="#AE5E46" stroke-width="5"/>
<text alignment-baseline="hanging" font-family="monospace" font-size="85" text-anchor="end" x="500" y="1200">
U?
</text>
<text alignment-baseline="hanging" font-family="monospace" font-size="85" text-anchor="end" x="300" y="1200">
SN74HC151QDRQ1
</text>
<text font-family="monospace" font-size="85" text-anchor="begin" x="585" y="385">
1
</text>
<text alignment-baseline="middle" font-family="monospace" font-size="85" text-anchor="end" x="415" y="400">
D3
</text>
<path d="M500,400 L700,400" fill="none" stroke="black" stroke-width="10"/>
<text font-family="monospace" font-size="85" text-anchor="begin" x="585" y="585">
2
</text>
<text alignment-baseline="middle" font-family="monospace" font-size="85" text-anchor="end" x="415" y="600">
D2
</text>
<path d="M500,600 L700,600" fill="none" stroke="black" stroke-width="10"/>
<text font-family="monospace" font-size="85" text-anchor="begin" x="585" y="785">
3
</text>
<text alignment-baseline="middle" font-family="monospace" font-size="85" text-anchor="end" x="415" y="800">
D1
</text>
<path d="M500,800 L700,800" fill="none" stroke="black" stroke-width="10"/>
<text font-family="monospace" font-size="85" text-anchor="begin" x="585" y="985">
4
</text>
<text alignment-baseline="middle" font-family="monospace" font-size="85" text-anchor="end" x="415" y="1000">
D0
</text>
<path d="M500,1000 L700,1000" fill="none" stroke="black" stroke-width="10"/>
<text font-family="monospace" font-size="85" text-anchor="end" x="-485" y="685">
5
</text>
<text alignment-baseline="middle" font-family="monospace" font-size="85" text-anchor="begin" x="-315" y="700">
Y
</text>
<path d="M-400,700 L-600,700" fill="none" stroke="black" stroke-width="10"/>
<text font-family="monospace" font-size="85" text-anchor="end" x="-485" y="385">
6
</text>
<text alignment-baseline="middle" font-family="monospace" font-size="85" text-anchor="begin" x="-315" y="400">
W
</text>
<path d="M-400,400 L-600,400" fill="none" stroke="black" stroke-width="10"/>
<text alignment-baseline="bottom" font-family="monospace" font-size="85" text-anchor="start" transform="rotate(-90, -300, -700) translate(-250 -715)" x="0" y="0">
7
</text>
<text alignment-baseline="middle" font-family="monospace" font-size="85" text-anchor="end" transform="rotate(-90, -300, -615) translate(-300 -615)">
~G
</text>
<path d="M-300,-700 L-300,-900" fill="none" stroke="black" stroke-width="10"/>
<text font-family="monospace" font-size="85" text-anchor="end" x="-485" y="-415">
8
</text>
<text alignment-baseline="middle" font-family="monospace" font-size="85" text-anchor="begin" x="-315" y="-400">
GND
</text>
<path d="M-400,-400 L-600,-400" fill="none" stroke="black" stroke-width="10"/>
<text alignment-baseline="bottom" font-family="monospace" font-size="85" text-anchor="start" transform="rotate(-90, 400, -700) translate(450 -715)" x="0" y="0">
9
</text>
<text alignment-baseline="middle" font-family="monospace" font-size="85" text-anchor="end" transform="rotate(-90, 400, -615) translate(400 -615)">
C
</text>
<path d="M400,-700 L400,-900" fill="none" stroke="black" stroke-width="10"/>
<text alignment-baseline="bottom" font-family="monospace" font-size="85" text-anchor="start" transform="rotate(-90, 200, -700) translate(250 -715)" x="0" y="0">
10
</text>
<text alignment-baseline="middle" font-family="monospace" font-size="85" text-anchor="end" transform="rotate(-90, 200, -615) translate(200 -615)">
B
</text>
<path d="M200,-700 L200,-900" fill="none" stroke="black" stroke-width="10"/>
<text alignment-baseline="bottom" font-family="monospace" font-size="85" text-anchor="start" transform="rotate(-90, 0, -700) translate(50 -715)" x="0" y="0">
11
</text>
<text alignment-baseline="middle" font-family="monospace" font-size="85" text-anchor="end" transform="rotate(-90, 0, -615) translate(0 -615)">
A
</text>
<path d="M0,-700 L0,-900" fill="none" stroke="black" stroke-width="10"/>
<text font-family="monospace" font-size="85" text-anchor="begin" x="585" y="-415">
12
</text>
<text alignment-baseline="middle" font-family="monospace" font-size="85" text-anchor="end" x="415" y="-400">
D7
</text>
<path d="M500,-400 L700,-400" fill="none" stroke="black" stroke-width="10"/>
<text font-family="monospace" font-size="85" text-anchor="begin" x="585" y="-215">
13
</text>
<text alignment-baseline="middle" font-family="monospace" font-size="85" text-anchor="end" x="415" y="-200">
D6
</text>
<path d="M500,-200 L700,-200" fill="none" stroke="black" stroke-width="10"/>
<text font-family="monospace" font-size="85" text-anchor="begin" x="585" y="-15">
14
</text>
<text alignment-baseline="middle" font-family="monospace" font-size="85" text-anchor="end" x="415" y="0">
D5
</text>
<path d="M500,0 L700,0" fill="none" stroke="black" stroke-width="10"/>
<text font-family="monospace" font-size="85" text-anchor="begin" x="585" y="185">
15
</text>
<text alignment-baseline="middle" font-family="monospace" font-size="85" text-anchor="end" x="415" y="200">
D4
</text>
<path d="M500,200 L700,200" fill="none" stroke="black" stroke-width="10"/>
<text font-family="monospace" font-size="85" text-anchor="end" x="-485" y="1085">
16
</text>
<text alignment-baseline="middle" font-family="monospace" font-size="85" text-anchor="begin" x="-315" y="1100">
VCC
</text>
<path d="M-400,1100 L-600,1100" fill="none" stroke="black" stroke-width="10"/>
</g>
<path d="M-600,1400 L-600,-900 L700,-900 L700,1400 z" fill="none" stroke="green" stroke-width="2"/>
</svg>