<svg viewBox="-2000 -2000 4000 4000" xmlns="http://www.w3.org/2000/svg">
<g transform=" translate(0,0)">
<path d="M-500,500 L-500,-500 L600,-500 L600,500 z" fill="#FFFDB0" stroke="#AE5E46" stroke-width="5"/>
<text alignment-baseline="bottom" font-family="monospace" font-size="85" text-anchor="begin" x="-500" y="-500">
U?
</text>
<text alignment-baseline="hanging" font-family="monospace" font-size="85" text-anchor="begin" x="-500" y="500">
SN74LVC1G86DCK
</text>
<path d="M-213.58984,-200 A400,400,0,0,1,-213.58984,200" fill="none" stroke="#0433FF" stroke-width="10"/>
<path d="M-143.58984,-200 A400,400,0,0,1,-143.58984,200" fill="none" stroke="#0433FF" stroke-width="10"/>
<path d="M-140,-200 L0,-200" fill="none" stroke="#0433FF" stroke-width="10"/>
<path d="M-140,200 L0,200" fill="none" stroke="#0433FF" stroke-width="10"/>
<path d="M-0.000000000000069804866,-200 A380,380,0,0,1,329.08966,-10" fill="none" stroke="#0433FF" stroke-width="10"/>
<path d="M329.08966,10 A380,380,0,0,1,0.00000000000002326829,200" fill="none" stroke="#0433FF" stroke-width="10"/>
<path d="M-270,-100 L-180,-100" fill="none" stroke="#0433FF" stroke-width="10"/>
<path d="M-270,100 L-180,100" fill="none" stroke="#0433FF" stroke-width="10"/>
<path d="M330,0 L400,0" fill="none" stroke="#0433FF" stroke-width="10"/>
<text font-family="monospace" font-size="85" text-anchor="end" x="-585" y="-115">
1
</text>
<text alignment-baseline="middle" font-family="monospace" font-size="85" text-anchor="begin" x="-415" y="-100">
A
</text>
<path d="M-500,-100 L-700,-100" fill="none" stroke="black" stroke-width="10"/>
<text font-family="monospace" font-size="85" text-anchor="end" x="-585" y="85">
2
</text>
<text alignment-baseline="middle" font-family="monospace" font-size="85" text-anchor="begin" x="-415" y="100">
B
</text>
<path d="M-500,100 L-700,100" fill="none" stroke="black" stroke-width="10"/>
<text font-family="monospace" font-size="85" text-anchor="begin" x="685" y="285">
3
</text>
<text alignment-baseline="middle" font-family="monospace" font-size="85" text-anchor="end" x="515" y="300">
GND
</text>
<path d="M600,300 L800,300" fill="none" stroke="black" stroke-width="10"/>
<text font-family="monospace" font-size="85" text-anchor="begin" x="685" y="-15">
4
</text>
<text alignment-baseline="middle" font-family="monospace" font-size="85" text-anchor="end" x="515" y="0">
Y
</text>
<path d="M600,0 L800,0" fill="none" stroke="black" stroke-width="10"/>
<text font-family="monospace" font-size="85" text-anchor="begin" x="685" y="-315">
5
</text>
<text alignment-baseline="middle" font-family="monospace" font-size="85" text-anchor="end" x="515" y="-300">
VCC
</text>
<path d="M600,-300 L800,-300" fill="none" stroke="black" stroke-width="10"/>
</g>
<path d="M-960,700 L-960,-700 L800,-700 L800,700 z" fill="none" stroke="green" stroke-width="2"/>
</svg>