<svg viewBox="-2000 -2000 4000 4000" xmlns="http://www.w3.org/2000/svg">
<g transform="rotate(-90, 0, 0) translate(0,0)">
<path d="M-500,300 L-500,-200 L500,-200 L500,300 z" fill="#FFFDB0" stroke="#AE5E46" stroke-width="5"/>
<text alignment-baseline="hanging" font-family="monospace" font-size="85" text-anchor="begin" x="-500" y="300">
V?
</text>
<text alignment-baseline="hanging" font-family="monospace" font-size="85" text-anchor="begin" x="-300" y="300">
TPS7B8450QDCYRQ1
</text>
<text font-family="monospace" font-size="85" text-anchor="end" x="-585" y="185">
1
</text>
<text alignment-baseline="middle" font-family="monospace" font-size="85" text-anchor="begin" x="-415" y="200">
IN
</text>
<path d="M-500,200 L-700,200" fill="none" stroke="black" stroke-width="10"/>
<text font-family="monospace" font-size="85" text-anchor="end" x="-585" y="-115">
2
</text>
<text alignment-baseline="middle" font-family="monospace" font-size="85" text-anchor="begin" x="-415" y="-100">
EN
</text>
<path d="M-500,-100 L-700,-100" fill="none" stroke="black" stroke-width="10"/>
<text font-family="monospace" font-size="85" text-anchor="begin" x="585" y="185">
3
</text>
<text alignment-baseline="middle" font-family="monospace" font-size="85" text-anchor="end" x="415" y="200">
OUT
</text>
<path d="M500,200 L700,200" fill="none" stroke="black" stroke-width="10"/>
<text alignment-baseline="bottom" font-family="monospace" font-size="85" text-anchor="start" transform="rotate(-90, 0, -200) translate(50 -215)" x="0" y="0">
4
</text>
<text alignment-baseline="middle" font-family="monospace" font-size="85" text-anchor="end" transform="rotate(-90, 0, -115) translate(0 -115)">
GND
</text>
<path d="M0,-200 L0,-400" fill="none" stroke="black" stroke-width="10"/>
</g>
<path d="M-400,700 L-400,-700 L500,-700 L500,700 z" fill="none" stroke="green" stroke-width="2"/>
</svg>