<svg viewBox="-2000 -2000 4000 4000" xmlns="http://www.w3.org/2000/svg">
<g transform="rotate(-90, 0, 0) translate(0,0)">
<path d="M-400,300 L-400,-400 L400,-400 L400,300 z" fill="#FFFDB0" stroke="#AE5E46" stroke-width="5"/>
<text alignment-baseline="bottom" font-family="monospace" font-size="85" text-anchor="begin" x="-400" y="-400">
V?
</text>
<text alignment-baseline="bottom" font-family="monospace" font-size="85" text-anchor="begin" x="-200" y="-400">
ZLDO1117G50TA
</text>
<text alignment-baseline="bottom" font-family="monospace" font-size="85" text-anchor="end" transform="rotate(-90, 0, 300) translate(-85 285)" x="0" y="0">
1
</text>
<text alignment-baseline="middle" font-family="monospace" font-size="85" text-anchor="begin" transform="rotate(-90, 0, 215) translate(0 215)">
GND
</text>
<path d="M0,300 L0,500" fill="none" stroke="black" stroke-width="10"/>
<text font-family="monospace" font-size="85" text-anchor="begin" x="485" y="-315">
2
</text>
<text alignment-baseline="middle" font-family="monospace" font-size="85" text-anchor="end" x="315" y="-300">
Vout_1
</text>
<path d="M400,-300 L600,-300" fill="none" stroke="black" stroke-width="10"/>
<text font-family="monospace" font-size="85" text-anchor="end" x="-485" y="-315">
3
</text>
<text alignment-baseline="middle" font-family="monospace" font-size="85" text-anchor="begin" x="-315" y="-300">
Vin
</text>
<path d="M-400,-300 L-600,-300" fill="none" stroke="black" stroke-width="10"/>
<text font-family="monospace" font-size="85" text-anchor="begin" x="485" y="-115">
4
</text>
<text alignment-baseline="middle" font-family="monospace" font-size="85" text-anchor="end" x="315" y="-100">
Vout_2
</text>
<path d="M400,-100 L600,-100" fill="none" stroke="black" stroke-width="10"/>
</g>
<path d="M-600,600 L-600,-600 L500,-600 L500,600 z" fill="none" stroke="green" stroke-width="2"/>
</svg>