<svg viewBox="-2000 -2000 4000 4000" xmlns="http://www.w3.org/2000/svg">
<g transform="rotate(-90, 0, 0) translate(0,0)">
<path d="M-600,500 L-600,-500 L500,-500 L500,500 z" fill="#FFFDB0" stroke="#AE5E46" stroke-width="5"/>
<text alignment-baseline="bottom" font-family="monospace" font-size="85" text-anchor="end" x="500" y="-500">
U?
</text>
<text alignment-baseline="hanging" font-family="monospace" font-size="85" text-anchor="end" x="500" y="500">
SN74LVC1G86DCK
</text>
<path d="M140,-200 L0,-200" fill="none" stroke="#0433FF" stroke-width="10"/>
<path d="M140,200 L0,200" fill="none" stroke="#0433FF" stroke-width="10"/>
<path d="M270,-100 L180,-100" fill="none" stroke="#0433FF" stroke-width="10"/>
<path d="M270,100 L180,100" fill="none" stroke="#0433FF" stroke-width="10"/>
<path d="M-330,0 L-400,0" fill="none" stroke="#0433FF" stroke-width="10"/>
<text font-family="monospace" font-size="85" text-anchor="begin" x="585" y="-115">
1
</text>
<text alignment-baseline="middle" font-family="monospace" font-size="85" text-anchor="end" x="415" y="-100">
A
</text>
<path d="M500,-100 L700,-100" fill="none" stroke="black" stroke-width="10"/>
<text font-family="monospace" font-size="85" text-anchor="begin" x="585" y="85">
2
</text>
<text alignment-baseline="middle" font-family="monospace" font-size="85" text-anchor="end" x="415" y="100">
B
</text>
<path d="M500,100 L700,100" fill="none" stroke="black" stroke-width="10"/>
<text font-family="monospace" font-size="85" text-anchor="end" x="-685" y="285">
3
</text>
<text alignment-baseline="middle" font-family="monospace" font-size="85" text-anchor="begin" x="-515" y="300">
GND
</text>
<path d="M-600,300 L-800,300" fill="none" stroke="black" stroke-width="10"/>
<text font-family="monospace" font-size="85" text-anchor="end" x="-685" y="-15">
4
</text>
<text alignment-baseline="middle" font-family="monospace" font-size="85" text-anchor="begin" x="-515" y="0">
Y
</text>
<path d="M-600,0 L-800,0" fill="none" stroke="black" stroke-width="10"/>
<text font-family="monospace" font-size="85" text-anchor="end" x="-685" y="-315">
5
</text>
<text alignment-baseline="middle" font-family="monospace" font-size="85" text-anchor="begin" x="-515" y="-300">
VCC
</text>
<path d="M-600,-300 L-800,-300" fill="none" stroke="black" stroke-width="10"/>
</g>
<path d="M-700,800 L-700,-700 L700,-700 L700,800 z" fill="none" stroke="green" stroke-width="2"/>
</svg>